<?xml version="1.0" encoding="utf-8"?>
<!-- Generator: Adobe Illustrator 24.0.3, SVG Export Plug-In . SVG Version: 6.00 Build 0)  -->
<svg version="1.1" id="Layer_1" xmlns="http://www.w3.org/2000/svg" xmlns:xlink="http://www.w3.org/1999/xlink" x="0px" y="0px"
	 viewBox="0 0 158.69 158.69" style="enable-background:new 0 0 158.69 158.69;" xml:space="preserve">
<style type="text/css">
	.st0{fill:#FFFFFF;}
</style>
<path class="st0" d="M149.11,78.26c-5.02-2.11-10.31-3.59-15.49-5.32c-0.48-0.16-0.97-0.3-1.46-0.43c-1.28,0.13-2.54-0.34-3.8-0.52
	c-0.66-0.09-1.55-0.19-2.33-0.24c-0.73-0.05-1.46-0.07-2.2-0.08c-2.96,0.15-5.91,0.73-8.82,1.28c-0.12,0.02-0.24,0.03-0.35,0.02
	c-1.71,0.36-3.64,0.33-5.9-0.31c2.23-1.25,3.75-2.13,5.3-2.96c5.08-2.71,5.7-6.45,1.7-10.47c-0.8-0.8-1.63-1.6-2.56-2.22
	c-7.74-5.06-16.22-7.67-25.47-8.33c-2.89-0.2-6.09-1.21-8.44-2.86c-7.79-5.48-16.38-9.2-25.63-10.52
	c-11.4-1.63-23.06-2.2-34.45,0.04c-8.76,1.71-13.06,3.97-12.04,11.15c0.38,2.71,2.09,5.68,4.08,7.62c3.37,3.29,7.44,5.87,11.37,8.86
	c-3.26,1.02-6.33,1.83-9.29,2.94c-6.13,2.29-8.31,8.25-4.06,13.16c3.53,4.07,8.01,7.66,12.74,10.24c4.07,2.22,7.74,3.89,9.28,8.79
	c2.57,8.18,8.33,13.99,15.42,18.51c2.49,1.59,5.24,2.77,7.81,4.24c7.24,4.15,15.35,4.2,23.29,4.7c4.1,0.26,8.27-0.8,12.41-0.83
	c8.81-0.06,17.44-0.64,23.52-8.14c3.91-4.83,7.79-9.78,10.87-15.14c3.21-5.6,7.77-8.11,13.8-9.36c3.81-0.79,7.62-2.28,11.03-4.16
	C153.94,85.46,153.74,80.21,149.11,78.26z M50.97,93.27c-1.7-1.9-3.4-4.62-3.55-5.62c-0.05-0.34,0.63-0.11,1,0.34
	c3.2,3.78,6.41,7.66,9.61,11.51c0.05,0.18,0.11,0.35,0.16,0.53C55.99,98.2,53.83,96.47,50.97,93.27z M78.1,89.09
	c-4.27-3.21-8.75-6.31-11.11-11.41c-1.4-3.02,0.25-6.95,3.35-8.14c1.07-0.41,3.62,0.22,3.84,0.92c1.93,5.91,3.48,11.95,5.14,17.95
	C78.91,88.65,78.51,88.87,78.1,89.09z"/>
</svg>
